<svg width="22" height="22" viewBox="0 0 22 22" fill="none" xmlns="http://www.w3.org/2000/svg">
<g clip-path="url(#clip0_79_2)">
<path d="M19.7765 9.67994L4.88319 9.67994L11.3899 3.17324C11.9099 2.65324 11.9099 1.79994 11.3899 1.27994C10.8699 0.759943 10.0299 0.759943 9.50989 1.27994L0.723189 10.0666C0.203189 10.5866 0.203189 11.4266 0.723189 11.9466L9.50989 20.7333C10.0299 21.2533 10.8699 21.2533 11.3899 20.7333C11.9099 20.2133 11.9099 19.3733 11.3899 18.8533L4.88319 12.3466L19.7765 12.3466C20.5099 12.3466 21.1099 11.7466 21.1099 11.0132C21.1099 10.2799 20.5099 9.67994 19.7765 9.67994Z" fill="#8F1B69"/>
</g>
<defs>
<clipPath id="clip0_79_2">
<rect width="22" height="22" fill="white" transform="translate(22 22) rotate(-180)"/>
</clipPath>
</defs>
</svg>
