<svg width="99" height="102" viewBox="0 0 99 102" fill="none" xmlns="http://www.w3.org/2000/svg">
<path d="M43.4149 2.95204C42.9359 2.35416 42.1574 2.08244 41.4104 2.25237C40.6634 2.42231 40.0791 3.00404 39.9058 3.7503L32.7823 34.4374L3.82032 45.7135C3.11476 45.9882 2.62481 46.6377 2.55457 47.3916C2.48433 48.1455 2.84584 48.8744 3.48851 49.2748L30.0898 65.8448L31.8794 97.4045C31.9226 98.1661 32.3953 98.8369 33.098 99.1337C33.8008 99.4305 34.6112 99.3016 35.1873 98.8016L58.7258 78.3682L88.7871 86.6083C89.5228 86.81 90.3091 86.5756 90.8144 86.004C91.3196 85.4324 91.4556 84.6231 91.165 83.9178L79.1263 54.6896L95.9418 28.2429C96.348 27.6039 96.3586 26.7904 95.9692 26.1411C95.5797 25.4917 94.857 25.118 94.102 25.1756L63.1123 27.5377L43.4149 2.95204Z" fill="#901B6A" stroke="#901B6A" stroke-width="4" stroke-linecap="round" stroke-linejoin="round"/>
</svg>
