<svg width="93" height="90" viewBox="0 0 93 90" fill="none" xmlns="http://www.w3.org/2000/svg">
<path d="M48.2984 3.12491C47.9635 2.43674 47.2653 2 46.5 2C45.7347 2 45.0365 2.43674 44.7016 3.12491L32.0307 29.1648L3.70666 33.3644C2.95706 33.4756 2.33465 34.0008 2.09908 34.7211C1.86352 35.4413 2.05526 36.2329 2.59432 36.7655L23.1046 57.0305L18.263 85.6666C18.1359 86.4185 18.4474 87.1773 19.0662 87.623C19.6851 88.0686 20.5035 88.1236 21.1764 87.7646L46.5 74.2552L71.8236 87.7646C72.4965 88.1236 73.3149 88.0686 73.9338 87.623C74.5526 87.1773 74.8641 86.4185 74.737 85.6666L69.8954 57.0304L90.4057 36.7655C90.9447 36.2329 91.1365 35.4413 90.9009 34.7211C90.6654 34.0008 90.0429 33.4756 89.2933 33.3644L60.9693 29.1648L48.2984 3.12491Z" fill="#901B6A" stroke="#901B6A" stroke-width="4" stroke-linecap="round" stroke-linejoin="round"/>
</svg>
