<?xml version="1.0" encoding="UTF-8"?>
<svg xmlns="http://www.w3.org/2000/svg" viewBox="0 0 20 20">
    <defs>
        <style>
            .cls-1 {
            fill: none;
            stroke: #901b6a;
            stroke-miterlimit: 10;
            stroke-width: .5px;
            }

            .cls-2 {
            fill: #901b6a;
            stroke-width: 0px;
            }
        </style>
    </defs>
    <path class="cls-1"
          d="M14.68,7.35c0,1.06-.24,2.1-.72,3.04-.56,1.13-1.43,2.08-2.51,2.74-1.07.66-2.31,1.02-3.57,1.02-1.06,0-2.1-.24-3.04-.72L.28,14.95l1.52-4.56c-.48-.94-.72-1.98-.72-3.04,0-1.26.35-2.5,1.02-3.57.66-1.07,1.61-1.94,2.74-2.51.94-.48,1.98-.72,3.04-.72h.4c1.67.09,3.24.8,4.42,1.98,1.18,1.18,1.88,2.76,1.98,4.42v.4Z"/>
    <path class="cls-2" d="M7.54,14.4s.34,4.6,8,3.87c0,0,1.16,1.29,2.45,1.29,0,0-1.12-1.59-.86-1.85,0,0,3.81-1.53,2.64-4.92,0,0-.88-2.61-5.01-4.17,0,0-1.27,5.53-7.22,5.77Z"/>
    <circle class="cls-2" cx="5.74" cy="7.45" r=".67"/>
    <circle class="cls-2" cx="7.62" cy="7.45" r=".67"/>
    <circle class="cls-2" cx="9.43" cy="7.45" r=".67"/>
</svg>