<svg width="1381" height="1134" viewBox="0 0 1381 1134" fill="none" xmlns="http://www.w3.org/2000/svg">
<mask id="mask0_98_753" style="mask-type:alpha" maskUnits="userSpaceOnUse" x="0" y="0" width="1381" height="1134">
<rect width="1381" height="1134" rx="107" fill="#D9D9D9"/>
</mask>
<g mask="url(#mask0_98_753)">
<path d="M352.172 505.869L509.654 477.274C566.913 466.651 621.793 504.336 633.235 561.527L696.604 878.274C703.645 913.468 717.47 936.906 738.32 949.789C759.089 962.271 786.484 966.357 820.425 961.646C854.365 956.936 895.812 948.228 945.163 935.443L992.37 1171.4C817.887 1227.11 688.35 1235.55 604.558 1196.58C520.766 1157.61 464.828 1068.97 437.064 930.198L353.052 510.268" fill="#901B6A" fill-opacity="0.06"/>
<path d="M291.515 181.924L261.75 33.149C255.269 0.754462 270.671 -32.2745 300.295 -48.1837L428.931 -117.177C461.589 -134.525 501.928 -115.559 509.209 -79.1651L551.135 130.4L723.629 95.8902C753.975 89.819 783.692 109.662 789.773 140.057L817.217 277.234C823.618 309.229 802.785 340.017 770.841 346.407L445.577 410.233C385.683 422.215 327.927 382.61 316.724 322.46L290.796 182.484L291.515 181.924Z" fill="#901B6A" fill-opacity="0.06"/>
</g>
</svg>
